<svg width="18" height="15" viewBox="0 0 18 15" fill="none" xmlns="http://www.w3.org/2000/svg">
<path d="M0.75 7.50006C0.75 7.12036 1.03215 6.80657 1.39823 6.75691L1.5 6.75006L14.684 6.75066L9.92101 2.00713C9.62749 1.71487 9.62647 1.24 9.91873 0.946473C10.1844 0.679634 10.601 0.65453 10.8951 0.871751L10.9794 0.944189L17.0294 6.96819C17.0681 7.00671 17.1017 7.04841 17.1302 7.09244C17.1383 7.10569 17.1465 7.11925 17.1542 7.13308C17.1614 7.14494 17.1678 7.15725 17.1739 7.16969C17.1824 7.1878 17.1907 7.20651 17.1982 7.2256C17.2043 7.24032 17.2094 7.25464 17.214 7.26907C17.2196 7.28696 17.2249 7.30603 17.2296 7.32539C17.233 7.33891 17.2357 7.35191 17.2381 7.36497C17.2414 7.3844 17.2443 7.40451 17.2463 7.42486C17.248 7.44038 17.2491 7.45575 17.2497 7.47114C17.2498 7.48048 17.25 7.49025 17.25 7.50006L17.2496 7.52911C17.249 7.54383 17.248 7.55854 17.2466 7.57321L17.25 7.50006C17.25 7.54739 17.2456 7.59369 17.2372 7.63859C17.2353 7.64931 17.233 7.66032 17.2304 7.67128C17.2251 7.69386 17.2189 7.7156 17.2118 7.73692C17.2084 7.74751 17.2043 7.75882 17.2 7.77005C17.1912 7.79262 17.1817 7.81413 17.1712 7.83509C17.1663 7.84494 17.1609 7.85526 17.1552 7.86547C17.1458 7.88213 17.1361 7.89796 17.1259 7.91339C17.1187 7.92431 17.1107 7.93567 17.1024 7.94686L17.0959 7.9555C17.0757 7.9819 17.0538 8.00692 17.0303 8.03039L17.0294 8.03109L10.9794 14.0561C10.6859 14.3484 10.2111 14.3474 9.91877 14.0539C9.65306 13.7871 9.62972 13.3704 9.84818 13.0772L9.92097 12.9932L14.682 8.25066L1.5 8.25006C1.08579 8.25006 0.75 7.91427 0.75 7.50006Z" fill="#272727"/>
</svg>
