<svg width="28" height="28" viewBox="0 0 28 28" fill="none" xmlns="http://www.w3.org/2000/svg">
<path d="M8.78281 12.6547C8.66389 12.5306 8.58314 12.3749 8.55018 12.2062C8.51721 12.0375 8.53342 11.8629 8.59687 11.7031C8.66212 11.5418 8.77398 11.4036 8.91815 11.3062C9.06232 11.2088 9.23226 11.1566 9.40625 11.1562H13.125V4.375C13.125 4.14294 13.2172 3.92038 13.3813 3.75628C13.5454 3.59219 13.7679 3.5 14 3.5C14.2321 3.5 14.4546 3.59219 14.6187 3.75628C14.7828 3.92038 14.875 4.14294 14.875 4.375V11.1562H18.5938C18.7677 11.1566 18.9377 11.2088 19.0819 11.3062C19.226 11.4036 19.3379 11.5418 19.4031 11.7031C19.4666 11.8629 19.4828 12.0375 19.4498 12.2062C19.4169 12.3749 19.3361 12.5306 19.2172 12.6547L14.6234 17.2484C14.4562 17.4102 14.2326 17.5006 14 17.5006C13.7674 17.5006 13.5438 17.4102 13.3766 17.2484L8.78281 12.6547ZM23.625 15.75C23.3929 15.75 23.1704 15.8422 23.0063 16.0063C22.8422 16.1704 22.75 16.3929 22.75 16.625V22.75H5.25V16.625C5.25 16.3929 5.15781 16.1704 4.99372 16.0063C4.82962 15.8422 4.60706 15.75 4.375 15.75C4.14294 15.75 3.92038 15.8422 3.75628 16.0063C3.59219 16.1704 3.5 16.3929 3.5 16.625V22.75C3.5 23.2141 3.68437 23.6592 4.01256 23.9874C4.34075 24.3156 4.78587 24.5 5.25 24.5H22.75C23.2141 24.5 23.6592 24.3156 23.9874 23.9874C24.3156 23.6592 24.5 23.2141 24.5 22.75V16.625C24.5 16.3929 24.4078 16.1704 24.2437 16.0063C24.0796 15.8422 23.8571 15.75 23.625 15.75Z" fill="#E84F26"/>
</svg>
